<svg width="217" height="82" viewBox="18 14 217 82" xmlns="http://www.w3.org/2000/svg">
  <g transform="translate(60,60) scale(0.44)">
    <line x1="0" y1="-75" x2="-65" y2="38"  stroke="#4ABA7A" stroke-width="0.8" opacity="0.18"/>
    <line x1="0" y1="-75" x2="65"  y2="38"  stroke="#4ABA7A" stroke-width="0.8" opacity="0.18"/>
    <line x1="-65" y1="38" x2="65" y2="38"  stroke="#4ABA7A" stroke-width="0.8" opacity="0.18"/>
    <line x1="0"   y1="-75" x2="0" y2="0"   stroke="#4ABA7A" stroke-width="2"   opacity="0.65"/>
    <line x1="-65" y1="38"  x2="0" y2="0"   stroke="#4ABA7A" stroke-width="2"   opacity="0.65"/>
    <line x1="65"  y1="38"  x2="0" y2="0"   stroke="#4ABA7A" stroke-width="2"   opacity="0.65"/>
    <circle cx="0"   cy="-75" r="9"  fill="#4ABA7A"/>
    <circle cx="-65" cy="38"  r="9"  fill="#4ABA7A"/>
    <circle cx="65"  cy="38"  r="9"  fill="#4ABA7A"/>
    <circle cx="0"   cy="-75" r="15" stroke="#4ABA7A" stroke-width="1" fill="none" opacity="0.3"/>
    <circle cx="-65" cy="38"  r="15" stroke="#4ABA7A" stroke-width="1" fill="none" opacity="0.3"/>
    <circle cx="65"  cy="38"  r="15" stroke="#4ABA7A" stroke-width="1" fill="none" opacity="0.3"/>
    <circle cx="0" cy="0" r="18" fill="#2E8B57"/>
    <circle cx="0" cy="0" r="26" stroke="#4ABA7A" stroke-width="1.2" fill="none" opacity="0.4"/>
    <circle cx="0" cy="0" r="5"  fill="#A8EDCA"/>
  </g>
  <text x="113" y="44" font-family="system-ui, sans-serif" font-size="30" font-weight="500" fill="#ffffff">Team</text>
  <text x="113" y="82" font-family="system-ui, sans-serif" font-size="30" font-weight="500" fill="#4ABA7A">Connect</text>
</svg>
