<svg width="308" height="101" viewBox="18 19 308 101" xmlns="http://www.w3.org/2000/svg">
  <g transform="translate(60,65) scale(0.44)">
    <line x1="0" y1="-75" x2="-65" y2="38"  stroke="#4ABA7A" stroke-width="0.8" opacity="0.18"/>
    <line x1="0" y1="-75" x2="65"  y2="38"  stroke="#4ABA7A" stroke-width="0.8" opacity="0.18"/>
    <line x1="-65" y1="38" x2="65" y2="38"  stroke="#4ABA7A" stroke-width="0.8" opacity="0.18"/>
    <line x1="0"   y1="-75" x2="0" y2="0"   stroke="#4ABA7A" stroke-width="2"   opacity="0.65"/>
    <line x1="-65" y1="38"  x2="0" y2="0"   stroke="#4ABA7A" stroke-width="2"   opacity="0.65"/>
    <line x1="65"  y1="38"  x2="0" y2="0"   stroke="#4ABA7A" stroke-width="2"   opacity="0.65"/>
    <circle cx="0"   cy="-75" r="10" fill="#4ABA7A"/>
    <circle cx="-65" cy="38"  r="10" fill="#4ABA7A"/>
    <circle cx="65"  cy="38"  r="10" fill="#4ABA7A"/>
    <circle cx="0"   cy="-75" r="16" stroke="#4ABA7A" stroke-width="1" fill="none" opacity="0.3"/>
    <circle cx="-65" cy="38"  r="16" stroke="#4ABA7A" stroke-width="1" fill="none" opacity="0.3"/>
    <circle cx="65"  cy="38"  r="16" stroke="#4ABA7A" stroke-width="1" fill="none" opacity="0.3"/>
    <circle cx="0" cy="0" r="18" fill="#2E8B57"/>
    <circle cx="0" cy="0" r="26" stroke="#4ABA7A" stroke-width="1.2" fill="none" opacity="0.4"/>
    <circle cx="0" cy="0" r="34" stroke="#4ABA7A" stroke-width="0.7" fill="none" opacity="0.2"/>
    <circle cx="0" cy="0" r="5"  fill="#A8EDCA"/>
  </g>
  <text x="113" y="46"  font-family="system-ui, sans-serif" font-size="24" font-weight="500" fill="#ffffff">Team</text>
  <text x="113" y="76"  font-family="system-ui, sans-serif" font-size="24" font-weight="500" fill="#4ABA7A">Connect</text>
  <line x1="113" y1="87" x2="320" y2="87" stroke="#4ABA7A" stroke-width="0.7" opacity="0.3"/>
  <text x="113" y="104" font-family="system-ui, sans-serif" font-size="10" letter-spacing="2.5" fill="#4ABA7A">remote teams · together</text>
</svg>
